<svg version="1.1" xmlns="http://www.w3.org/2000/svg" xmlns:xlink="http://www.w3.org/1999/xlink" x="0" y="0" width="110" height="115" viewBox="0, 0, 110, 115">
  <g>
    <path d="M0.31,75.27 L21.2,104 L55,115 L88.8,104 L109.69,75.25 L109.69,39.73 L88.8,11 L55,0 L21.2,11 L0.31,39.73 z" fill="#6D1C19"/>
    <path d="M96.46,70.97 L109.69,75.27 L88.8,104.02 L55,115 L55,101.09 L96.46,70.97 z" fill="#000000" opacity="0.45"/>
    <path d="M55,101.09 L55,115 L21.2,104.02 L0.31,75.27 L13.54,70.97 L55,101.09 z" fill="#000000" opacity="0.28"/>
    <path d="M13.54,70.97 L0.31,75.27 L0.32,39.73 L21.2,10.98 L29.38,22.23 L13.54,70.97 z" fill="#000000" opacity="0.18"/>
    <path d="M29.38,22.23 L21.2,10.98 L55,0 L88.8,10.98 L80.62,22.23 L29.38,22.23 z" fill="#000000" opacity="0.18"/>
    <path d="M80.62,22.23 L88.8,10.98 L109.69,39.73 L109.69,75.27 L96.46,70.97 L80.62,22.23 z" fill="#000000" opacity="0.28"/>
  </g>
</svg>
